<?xml version="1.0" encoding="UTF-8"?>
<svg id="Layer_1" xmlns="http://www.w3.org/2000/svg" version="1.1" viewBox="0 0 2500 2500">
  <!-- Generator: Adobe Illustrator 29.8.3, SVG Export Plug-In . SVG Version: 2.1.1 Build 3)  -->
  <defs>
    <style>
      .st0, .st1 {
        fill: #ab162b;
      }

      .st1 {
        fill-rule: evenodd;
      }

      .st2 {
        fill: #fff;
      }
    </style>
  </defs>
  <path class="st1" d="M1070.96,1174.81c11.63-6.43,23.78-11.54,36.08-15.52l-1.11,79.15h-.52c-4.78.09-9.55.6-14.25,1.53l-20.2-65.16Z"/>
  <path class="st1" d="M945.67,1343.48h-272.96c-1.35-16.69-1.75-33.69-1.15-50.9.7-25.86,2.84-50.9,6.34-75.05l268.68,91.15c-1.17,11.56-1.48,23.19-.91,34.8Z"/>
  <path class="st1" d="M956.14,1393.09l-252.58,79.6c-14.16-34.4-23.77-70.51-28.58-107.39h273.23v.02c1.76,9.48,4.41,18.78,7.93,27.77Z"/>
  <path class="st1" d="M949.88,1286.76l-426.79-189.14c7.63-42.38,20.2-83.72,37.44-123.17l399.15,277.6c-4.2,11.29-7.47,22.9-9.8,34.71Z"/>
  <path class="st1" d="M982.56,1435.43l-210.51,149.92c-23.79-28.15-43.83-59.27-59.61-92.58l253.36-79.84c4.78,8.07,10.4,15.61,16.76,22.5Z"/>
  <path class="st1" d="M968.6,1231.44l-240.29-179.16c20.55-41.85,46.85-80.61,78.15-115.16l183.79,259.62c-8.51,10.97-15.7,22.62-21.65,34.7Z"/>
  <path class="st1" d="M981.01,1320.37l18.52,6.28c-1.27,5.32-2.21,10.95-2.82,16.83h-15.94c-.42-3.28-.74-7.09-.6-10.73.18-4.22.44-8.35.84-12.38Z"/>
  <path class="st1" d="M1006.55,1305.94l-22.54-7.64c1.57-8.32,3.5-16.26,5.84-23.77l23.99,17.87h-.02c-2.68,4.23-5.11,8.75-7.27,13.54Z"/>
  <path class="st1" d="M1020.26,1464.17l-152.15,205.29c-29.87-19.06-57.24-41.78-81.45-67.65l212.41-151.26c6.66,5.14,13.75,9.7,21.19,13.62Z"/>
  <path class="st1" d="M1027.26,1275.15l-29.36-21.85c4-8.92,8.77-17.48,14.27-25.56l26.26,37.07c-3.86,3.16-7.6,6.58-11.17,10.34Z"/>
  <path class="st1" d="M1005.04,1179.74l-183.24-258.82c35.25-35.45,75.6-65.43,119.71-88.96l99.02,318.77c-12.9,8.29-24.8,18.02-35.49,29.01Z"/>
  <path class="st1" d="M1061.84,1479.39l-153.34,373.86c-33.04-8.8-64.82-21.77-94.57-38.6l226.82-341.4c6.89,2.5,13.93,4.55,21.09,6.14Z"/>
  <path class="st1" d="M1056.65,1252.65l-30.33-42.85c7.68-8.47,16.22-16.13,25.48-22.84l18.39,59.27c-4.49,1.79-9.02,3.93-13.54,6.42Z"/>
  <path class="st1" d="M1083.82,1482.85c6.2.61,12.44.88,18.67.81l-3.48,247.54c-8.97.55-18.11.81-27.37.81-23.22-.45-46.21-3-68.71-7.63l80.89-241.51v-.02Z"/>
  <path class="st1" d="M961.31,821.9c47.79-22.89,98.71-38.56,151.11-46.49l-4.86,346.34c-17.42,4.59-33.22,10.59-47.55,17.84l-98.7-317.69Z"/>
  <path class="st1" d="M1141.34,1242.03c-4.31-.97-8.82-1.78-13.51-2.36l1.21-86.34c14.41-3.12,28.68-4.85,42.12-5.41l1.69-.08-31.51,94.19Z"/>
  <path class="st1" d="M1142.04,1477.42l71.31,229.59c-29.7,11.39-60.76,18.88-92.38,22.28l3.46-247.49h.02c5.96-1.02,11.84-2.49,17.59-4.38Z"/>
  <path class="st1" d="M1175.21,1255.13v-.02c-4.05-2.34-8.37-4.53-13-6.44l33.73-100.75c17.62.99,35.07,4.06,51.98,9.13l-72.71,98.08Z"/>
  <path class="st1" d="M1184.89,1111.87c-19.83.24-38.26,2.03-55.35,5.07l4.83-344.47c20.73-2.31,41.7-3.5,62.83-3.5,33.55-.05,67.05,2.17,100.29,6.64l-112.58,336.26h-.02Z"/>
  <path class="st1" d="M1176.46,1459.79l133.07,187.97c-22.59,20.63-48.2,37.68-75.94,50.58l-71.34-229.62c4.92-2.66,9.67-5.65,14.21-8.93Z"/>
  <path class="st1" d="M1192.94,1267.93l76.54-103.25c18.44,7.63,35.84,17.57,51.78,29.59l-118.04,84.08h-.02c-3.12-3.62-6.52-7.1-10.26-10.42Z"/>
  <path class="st1" d="M1203.44,1433.72l171.48,127.84c-13.15,25.74-29.84,49.51-49.59,70.6l-132.19-186.7c3.65-3.72,7.09-7.63,10.3-11.74Z"/>
  <path class="st1" d="M1222.46,1309.14v-.02c-1.87-4.28-4.04-8.65-6.58-12.98l122.79-87.42c16.22,14.86,30.28,31.92,41.78,50.67l-157.99,49.75Z"/>
  <path class="st1" d="M1221.94,1402.13l186.1,63.11c-5.49,27.27-13.42,52.71-23.61,76.18l-168.93-125.95-.02.02c2.38-4.34,4.54-8.8,6.46-13.36Z"/>
  <path class="st1" d="M1231.88,1343.48c-.44-4.13-1.25-8.72-2.41-13.65l161.73-50.95c10.02,20.44,17.13,42.19,21.13,64.6h-180.45Z"/>
  <path class="st1" d="M1415.29,1365.32c1.15,12.44,1.46,24.95.9,37.43-.9,13.97-2.35,27.51-4.32,40.69l-183.13-62.06h-.02c1.29-5.3,2.22-10.67,2.82-16.06h183.75Z"/>
  <path class="st1" d="M1207.79,1112.52l111.68-333.55c62.27,10.49,118.64,28.9,169.18,53.29l-217.91,294v.02c-20.4-7.36-41.58-12.07-62.95-13.76Z"/>
  <path class="st1" d="M1291.61,1134.86l216.86-292.59c55.4,29.32,105.82,67.23,149.37,112.32l-306.37,218.18c-18.23-15.17-38.35-27.91-59.86-37.91Z"/>
  <path class="st1" d="M1368.11,1187.79l505.51-311.87c43.56,48.52,79.25,103.58,105.76,163.16l-563.99,209.28c-13.06-22.5-29.08-42.86-47.28-60.57Z"/>
  <g id="yCGdKT.tif">
    <g>
      <path class="st0" d="M1899.18,1184.53c1.65-.82,1.77-2.14,2.47-3.55l-12.44-45.12-4.82-1.59-462.24,127.56c-2.43,1.05-2.21,3.58-1.89,5.74,1.05,6.92,8.97,36.76,11.88,42.22.87,1.63,1.94,2.65,3.92,2.46,8.83-.82,23.93-10.68,31.22-2.16,4.18,4.9,1.23,14.15-4.76,15.8l-22.01,6.07c-2.95,3.51,3.28,22.85,5.37,23.99,9.4,1.31,31.06-13.12,35.2,1.46,4.76,16.81-27.96,12.55-29.73,21.04-.32,1.54,4.96,21.45,6.04,23.56,1.35,2.64,5.6,2.47,5.79,3.18l4.76,17.25,220.1-60.71-4.88-17.69,20.17-5.56,4.88,17.69,220.1-60.71-4.76-17.25c-.13-.48,3.08-3.52,3.73-4.36l-6.83-24.77c-10.35-4.88-32.37,13.63-36.76-2.71-3.58-13.34,18.49-14,26.71-17.44,1.97-.82,2.89-1.76,3.46-3.73l-5.37-19.46c-1.32-.85-2.11-1.92-3.94-1.78-8.61.68-29.66,13.07-33.17-1.64-3.36-14.08,19.94-13.91,27.8-17.8ZM1493.49,1407.79l-11,3.04-4.15-15.04,11-3.04,4.15,15.04ZM1894.68,1280.95l11-3.04,4.15,15.04-11,3.04-4.15-15.04ZM1515.5,1401.72l-11,3.04-4.15-15.04,11-3.04,4.15,15.04ZM1537.51,1395.65l-11,3.04-4.15-15.04,11-3.04,4.15,15.04ZM1559.51,1389.58l-11,3.04-4.15-15.04,11-3.04,4.15,15.04ZM1581.53,1383.51l-11.01,3.04-4.15-15.04,11.01-3.04,4.15,15.04ZM1603.54,1377.44l-11,3.04-4.15-15.04,11-3.04,4.15,15.04ZM1625.54,1371.37l-11,3.04-4.15-15.04,11-3.04,4.15,15.04ZM1646.64,1365.55l-10.09,2.78-4.15-15.04,10.09-2.78,4.15,15.04ZM1668.65,1359.48l-11,3.04-4.15-15.04,11-3.04,4.15,15.04ZM1514,1349.78l-20.5-74.31,337.48-93.08,20.5,74.31-337.48,93.08ZM1734.68,1341.27l-11.01,3.04-4.15-15.04,11.01-3.04,4.15,15.04ZM1755.77,1335.45l-10.09,2.78-4.15-15.04,10.09-2.78,4.15,15.04ZM1777.78,1329.38l-11,3.04-4.15-15.04,11-3.04,4.15,15.04ZM1799.78,1323.31l-11,3.04-4.15-15.04,11-3.04,4.15,15.04ZM1821.8,1317.24l-11.01,3.04-4.15-15.04,11.01-3.04,4.15,15.04ZM1843.8,1311.17l-11,3.04-4.15-15.04,11-3.04,4.15,15.04ZM1865.81,1305.1l-11,3.04-4.15-15.04,11-3.04,4.15,15.04ZM1887.82,1299.03l-11,3.04-4.15-15.04,11-3.04,4.15,15.04Z"/>
      <path class="st2" d="M1901.65,1180.99l6.83,24.77c-1.32-.85-2.11-1.92-3.94-1.78-8.61.68-29.66,13.07-33.17-1.64-3.36-14.08,19.94-13.91,27.8-17.8,1.65-.82,1.77-2.14,2.47-3.55Z"/>
      <path class="st2" d="M1913.85,1225.22l6.59,23.88c-10.35-4.88-32.37,13.63-36.76-2.71-3.58-13.34,18.49-14,26.71-17.44,1.97-.82,2.89-1.76,3.46-3.73Z"/>
    </g>
  </g>
</svg>